<svg xmlns="http://www.w3.org/2000/svg" width="1200" height="630" viewBox="0 0 1200 630" fill="none">
  <rect width="1200" height="630" fill="#f4efe7"/>
  <rect x="40" y="40" width="1120" height="550" rx="28" fill="#fffaf3" stroke="#d8cfc2" stroke-width="2"/>
  <text x="90" y="110" fill="#173f35" font-family="Arial, sans-serif" font-size="40" font-weight="700">CashFlow Insight Dashboard</text>
  <text x="90" y="150" fill="#48635a" font-family="Arial, sans-serif" font-size="20">Client revenue, expenses, overdue invoices, and monthly net cash flow</text>

  <rect x="90" y="190" width="160" height="100" rx="18" fill="#d7efe7"/>
  <rect x="270" y="190" width="160" height="100" rx="18" fill="#e5f4dd"/>
  <rect x="450" y="190" width="160" height="100" rx="18" fill="#fde7cf"/>
  <rect x="630" y="190" width="160" height="100" rx="18" fill="#f8d8d0"/>
  <text x="110" y="225" fill="#173f35" font-family="Arial, sans-serif" font-size="18">Paid Income</text>
  <text x="110" y="260" fill="#173f35" font-family="Arial, sans-serif" font-size="28" font-weight="700">EUR 45,700</text>
  <text x="290" y="225" fill="#264433" font-family="Arial, sans-serif" font-size="18">Invoiced</text>
  <text x="290" y="260" fill="#264433" font-family="Arial, sans-serif" font-size="28" font-weight="700">EUR 57,450</text>
  <text x="470" y="225" fill="#5d3f15" font-family="Arial, sans-serif" font-size="18">Expenses</text>
  <text x="470" y="260" fill="#5d3f15" font-family="Arial, sans-serif" font-size="28" font-weight="700">EUR 32,200</text>
  <text x="650" y="225" fill="#6a2720" font-family="Arial, sans-serif" font-size="18">Overdue</text>
  <text x="650" y="260" fill="#6a2720" font-family="Arial, sans-serif" font-size="28" font-weight="700">2 invoices</text>

  <rect x="90" y="325" width="520" height="200" rx="22" fill="#f8fbf8" stroke="#dfe7de"/>
  <text x="115" y="360" fill="#173f35" font-family="Arial, sans-serif" font-size="22" font-weight="700">Monthly Cash Flow</text>
  <polyline points="130,470 210,420 290,440 370,355 450,390 530,345 580,370" fill="none" stroke="#1f8a70" stroke-width="5" stroke-linecap="round" stroke-linejoin="round"/>
  <polyline points="130,495 210,475 290,460 370,470 450,445 530,425 580,430" fill="none" stroke="#c44536" stroke-width="5" stroke-linecap="round" stroke-linejoin="round"/>
  <line x1="130" y1="500" x2="580" y2="500" stroke="#9fb4aa" stroke-width="2"/>

  <rect x="640" y="325" width="430" height="200" rx="22" fill="#f8fbf8" stroke="#dfe7de"/>
  <text x="665" y="360" fill="#173f35" font-family="Arial, sans-serif" font-size="22" font-weight="700">Top Clients</text>
  <rect x="670" y="390" width="290" height="20" rx="10" fill="#1f8a70"/>
  <rect x="670" y="425" width="220" height="20" rx="10" fill="#4ea88b"/>
  <rect x="670" y="460" width="180" height="20" rx="10" fill="#77bea7"/>
  <text x="970" y="406" fill="#173f35" font-family="Arial, sans-serif" font-size="16">Solara Retail</text>
  <text x="900" y="441" fill="#173f35" font-family="Arial, sans-serif" font-size="16">Iberia Health</text>
  <text x="860" y="476" fill="#173f35" font-family="Arial, sans-serif" font-size="16">Northwind</text>
</svg>
